<?xml version="1.0" standalone="no"?>
<!DOCTYPE svg PUBLIC "-//W3C//DTD SVG 20010904//EN"
 "http://www.w3.org/TR/2001/REC-SVG-20010904/DTD/svg10.dtd">
<svg version="1.0" xmlns="http://www.w3.org/2000/svg"
 width="1024.000000pt" height="1024.000000pt" viewBox="0 0 1024.000000 1024.000000"
 preserveAspectRatio="xMidYMid meet">

<g transform="translate(0.000000,1024.000000) scale(0.100000,-0.100000)"
fill="currentColor" stroke="none">
<path d="M4922 8739 c-480 -40 -976 -273 -1327 -624 -269 -269 -452 -576 -545
-915 -57 -211 -82 -426 -100 -900 -10 -264 -20 -350 -39 -350 -38 0 -203 69
-501 210 -209 98 -278 120 -405 127 -121 7 -191 -6 -283 -52 -122 -62 -202
-151 -253 -280 -20 -51 -23 -77 -22 -180 0 -142 25 -239 102 -400 140 -294
432 -603 844 -895 220 -155 277 -212 277 -274 0 -52 -46 -205 -99 -331 -95
-224 -254 -485 -428 -699 -48 -60 -114 -140 -145 -179 -103 -127 -157 -260
-158 -383 0 -71 34 -196 71 -260 65 -115 184 -215 309 -261 174 -64 391 -55
825 34 182 37 323 38 417 1 90 -36 148 -74 313 -208 77 -62 183 -141 235 -175
239 -159 528 -267 832 -310 121 -17 435 -20 558 -4 393 48 722 192 1040 456
168 138 224 180 290 216 130 70 196 71 515 13 291 -54 423 -69 555 -63 193 8
325 63 446 183 169 167 210 401 109 609 -25 52 -57 94 -238 317 -237 291 -411
592 -505 875 -74 220 -71 226 239 448 218 157 286 212 431 346 358 333 565
739 519 1022 -25 156 -136 309 -272 375 -103 51 -177 65 -304 59 -138 -6 -186
-22 -469 -158 -232 -112 -372 -169 -411 -169 -17 0 -28 7 -34 23 -4 12 -13
168 -20 347 -17 470 -34 639 -86 841 -91 356 -267 661 -535 929 -467 466
-1087 693 -1748 639z m398 -339 c283 -29 571 -133 807 -290 473 -315 754 -782
812 -1350 13 -124 28 -411 41 -782 10 -290 15 -315 69 -361 39 -32 89 -47 161
-47 142 1 274 49 724 268 212 103 246 117 301 120 35 2 80 -1 100 -8 75 -25
144 -113 145 -185 0 -92 -80 -275 -186 -425 -133 -187 -352 -386 -709 -645
-231 -168 -293 -240 -325 -374 -47 -198 119 -673 366 -1050 87 -131 159 -227
299 -392 147 -174 172 -234 135 -332 -25 -68 -78 -117 -159 -149 -87 -34 -197
-29 -496 23 -229 39 -265 43 -425 44 -153 0 -185 -3 -253 -23 -149 -43 -258
-108 -447 -267 -133 -112 -262 -201 -369 -255 -433 -217 -1027 -231 -1490 -36
-145 61 -271 143 -476 311 -182 149 -285 208 -426 247 -74 20 -106 23 -264 22
-157 -1 -202 -5 -355 -33 -309 -56 -396 -66 -473 -53 -81 14 -143 42 -186 84
-73 71 -89 154 -47 243 13 28 71 108 130 179 285 341 449 612 565 929 75 202
96 294 96 417 0 94 -3 111 -28 164 -52 112 -99 155 -442 409 -329 244 -553
485 -670 720 -107 216 -94 352 40 417 39 19 58 22 122 18 72 -5 85 -10 322
-128 412 -205 594 -269 736 -258 79 7 131 32 160 77 29 44 33 74 40 281 11
300 35 742 46 854 41 430 196 767 488 1070 301 310 708 504 1151 549 76 8 280
6 370 -3z"/>
<path d="M4280 7311 c-120 -26 -222 -139 -277 -306 -24 -72 -27 -96 -27 -235
-1 -136 2 -164 22 -230 70 -223 206 -342 372 -327 150 13 264 123 327 311 25
74 27 94 27 241 0 147 -2 167 -27 241 -48 145 -138 256 -235 289 -58 19 -136
26 -182 16z"/>
<path d="M5823 7310 c-149 -31 -260 -178 -298 -395 -20 -116 -19 -200 5 -315
35 -172 122 -305 235 -360 41 -21 65 -25 135 -25 76 0 91 3 139 30 71 39 126
103 171 200 83 177 91 393 20 586 -34 93 -72 151 -139 211 -68 61 -173 88
-268 68z"/>
<path d="M4719 5890 c-110 -19 -208 -91 -256 -187 -89 -182 15 -504 233 -718
122 -120 234 -173 390 -182 221 -13 419 93 563 302 106 152 163 310 164 450 1
66 -4 90 -25 136 -45 99 -143 172 -266 198 -61 13 -729 13 -803 1z"/>
</g>
</svg>
